<?xml version="1.0" encoding="utf-8"?>
<!-- Generator: Adobe Illustrator 24.0.1, SVG Export Plug-In . SVG Version: 6.00 Build 0)  -->
<svg version="1.1" id="Camada_1" xmlns="http://www.w3.org/2000/svg" xmlns:xlink="http://www.w3.org/1999/xlink" x="0px" y="0px"
	 viewBox="0 0 50 50" style="enable-background:new 0 0 50 50;" xml:space="preserve">
<style type="text/css">
	.st0{fill:#999999;}
</style>
<g>
	<path class="st0" d="M37.35,11.98c-2.95-2.94-6.92-2.57-12.76-2.57h-0.01c-6.29,0-12.25-0.56-14.53,5.29
		c-0.95,2.42-0.81,5.56-0.81,10.05c0,3.95-0.12,7.65,0.81,10.05c2.27,5.86,8.29,5.3,14.53,5.3c6.02,0,12.23,0.62,14.54-5.3
		c0.94-2.44,0.8-5.53,0.8-10.05C39.92,18.76,40.26,14.89,37.35,11.98z M37.07,30.95c-0.32,7.16-5.78,6.37-12.48,6.37
		c-12.23,0-12.58-0.35-12.58-12.58c0-12.37,0.97-12.56,11.2-12.57C36.33,12.15,38,10.69,37.07,30.95z"/>
	<path class="st0" d="M34.62,16.56c0,1.02-0.83,1.84-1.84,1.84c-1.02,0-1.84-0.82-1.84-1.84s0.82-1.84,1.84-1.84
		C33.79,14.72,34.62,15.54,34.62,16.56z"/>
	<path class="st0" d="M24.59,16.87c-4.36,0-7.88,3.53-7.88,7.88s3.52,7.88,7.88,7.88c4.35,0,7.87-3.53,7.87-7.88
		S28.94,16.87,24.59,16.87z M24.59,29.87c-6.76,0-6.77-10.23,0-10.23C31.35,19.64,31.36,29.87,24.59,29.87z"/>
</g>
</svg>
