<?xml version="1.0" encoding="utf-8"?>
<!-- Generator: Adobe Illustrator 24.0.1, SVG Export Plug-In . SVG Version: 6.00 Build 0)  -->
<svg version="1.1" id="Camada_1" xmlns="http://www.w3.org/2000/svg" xmlns:xlink="http://www.w3.org/1999/xlink" x="0px" y="0px"
	 viewBox="0 0 140.8 30" style="enable-background:new 0 0 140.8 30;" xml:space="preserve">
<style type="text/css">
	.st0{fill:#FCFF4B;}
	.st1{fill:#574D68;}
	.st2{fill:#9381FF;}
	.st3{fill:#F06543;}
</style>
<path class="st0" d="M11.6,13.4L11.6,13.4c-1,0-1.9-0.8-1.9-1.9v-4c0-1,0.8-1.9,1.9-1.9h0c1,0,1.9,0.8,1.9,1.9v4
	C13.5,12.6,12.7,13.4,11.6,13.4z"/>
<path class="st1" d="M11.6,24.9L11.6,24.9c-1,0-1.9-0.8-1.9-1.9v-4c0-1,0.8-1.9,1.9-1.9h0c1,0,1.9,0.8,1.9,1.9v4
	C13.5,24,12.6,24.9,11.6,24.9z"/>
<path class="st2" d="M9.7,15.3L9.7,15.3c0,1-0.8,1.9-1.9,1.9h-4c-1,0-1.9-0.8-1.9-1.9v0c0-1,0.8-1.9,1.9-1.9l4,0
	C8.9,13.4,9.7,14.2,9.7,15.3z"/>
<path class="st3" d="M21.2,15.3L21.2,15.3c0,1-0.8,1.9-1.9,1.9h-4c-1,0-1.9-0.8-1.9-1.9v0c0-1,0.8-1.9,1.9-1.9l4,0
	C20.4,13.4,21.2,14.2,21.2,15.3z"/>
<g>
	<g>
		<path class="st2" d="M28.9,11.2h2.6v2.3H29v7.7h-3v-7.7h-1.6v-2.3H26v-0.5c0-1.2,0.3-2.1,1-2.8c0.7-0.7,1.7-1,2.9-1
			c0.4,0,0.9,0,1.3,0.1c0.4,0.1,0.7,0.2,1,0.4l-0.8,2.1c-0.3-0.2-0.7-0.4-1.2-0.4c-0.9,0-1.4,0.5-1.4,1.5V11.2z"/>
		<path class="st2" d="M34.8,20.6c-0.9-0.5-1.5-1.1-2-1.9c-0.5-0.8-0.7-1.7-0.7-2.7c0-1,0.2-1.9,0.7-2.7c0.5-0.8,1.2-1.4,2-1.9
			c0.9-0.4,1.8-0.7,2.9-0.7c1.1,0,2,0.2,2.9,0.7c0.8,0.5,1.5,1.1,2,1.9c0.5,0.8,0.7,1.7,0.7,2.7c0,1-0.2,1.9-0.7,2.7s-1.1,1.4-2,1.9
			c-0.8,0.4-1.8,0.7-2.9,0.7C36.7,21.3,35.7,21.1,34.8,20.6z M39.6,18.1c0.5-0.5,0.7-1.2,0.7-2.1c0-0.9-0.2-1.5-0.7-2.1
			c-0.5-0.5-1.1-0.8-1.9-0.8c-0.8,0-1.4,0.3-1.9,0.8c-0.5,0.5-0.7,1.2-0.7,2.1c0,0.9,0.2,1.5,0.7,2.1c0.5,0.5,1.1,0.8,1.9,0.8
			C38.5,18.9,39.1,18.6,39.6,18.1z"/>
		<path class="st2" d="M48.6,11.2h2.6v2.3h-2.5v7.7h-3v-7.7h-1.6v-2.3h1.6v-0.5c0-1.2,0.3-2.1,1-2.8c0.7-0.7,1.7-1,2.9-1
			c0.4,0,0.9,0,1.3,0.1c0.4,0.1,0.7,0.2,1,0.4l-0.8,2.1c-0.3-0.2-0.7-0.4-1.2-0.4c-0.9,0-1.4,0.5-1.4,1.5V11.2z"/>
		<path class="st2" d="M54.5,20.6c-0.9-0.5-1.5-1.1-2-1.9C52,18,51.8,17.1,51.8,16c0-1,0.2-1.9,0.7-2.7c0.5-0.8,1.2-1.4,2-1.9
			c0.9-0.4,1.8-0.7,2.9-0.7s2,0.2,2.9,0.7c0.8,0.5,1.5,1.1,2,1.9C62.8,14.1,63,15,63,16c0,1-0.2,1.9-0.7,2.7c-0.5,0.8-1.1,1.4-2,1.9
			c-0.8,0.4-1.8,0.7-2.9,0.7S55.4,21.1,54.5,20.6z M59.3,18.1c0.5-0.5,0.7-1.2,0.7-2.1c0-0.9-0.2-1.5-0.7-2.1
			c-0.5-0.5-1.1-0.8-1.9-0.8S56,13.5,55.5,14c-0.5,0.5-0.7,1.2-0.7,2.1c0,0.9,0.2,1.5,0.7,2.1c0.5,0.5,1.1,0.8,1.9,0.8
			S58.8,18.6,59.3,18.1z"/>
		<path class="st2" d="M75.4,10.9v13.9h-3v-4.8c-0.7,0.8-1.8,1.2-3.1,1.2c-1,0-1.8-0.2-2.6-0.6c-0.8-0.4-1.4-1-1.8-1.8
			c-0.4-0.8-0.7-1.7-0.7-2.8c0-1.1,0.2-2,0.7-2.8c0.4-0.8,1.1-1.4,1.8-1.8c0.8-0.4,1.7-0.6,2.6-0.6c1.4,0,2.5,0.4,3.2,1.3v-1.2H75.4
			z M71.7,18.1c0.5-0.5,0.7-1.2,0.7-2.1c0-0.9-0.2-1.5-0.7-2.1c-0.5-0.5-1.1-0.8-1.9-0.8c-0.8,0-1.4,0.3-1.9,0.8
			c-0.5,0.5-0.7,1.2-0.7,2.1c0,0.9,0.2,1.5,0.7,2.1c0.5,0.5,1.1,0.8,1.9,0.8C70.6,18.9,71.2,18.6,71.7,18.1z"/>
		<path class="st2" d="M88.4,10.9v10.2h-2.8v-1.2c-0.4,0.4-0.9,0.8-1.4,1s-1.1,0.4-1.8,0.4c-1.3,0-2.4-0.4-3.2-1.2
			c-0.8-0.8-1.2-1.9-1.2-3.4v-5.8h3v5.3c0,1.6,0.7,2.5,2.1,2.5c0.7,0,1.3-0.2,1.7-0.7s0.6-1.2,0.6-2.1v-5.1H88.4z"/>
		<path class="st2" d="M101.1,16.9h-7.7c0.1,0.6,0.5,1.1,1,1.5c0.5,0.4,1.2,0.6,1.9,0.6c0.5,0,1-0.1,1.4-0.2
			c0.4-0.2,0.8-0.4,1.2-0.8l1.6,1.7c-1,1.1-2.4,1.7-4.2,1.7c-1.2,0-2.2-0.2-3.1-0.7c-0.9-0.5-1.6-1.1-2.1-1.9
			c-0.5-0.8-0.7-1.7-0.7-2.7c0-1,0.2-1.9,0.7-2.7c0.5-0.8,1.1-1.4,2-1.9c0.8-0.4,1.8-0.7,2.8-0.7c1,0,1.9,0.2,2.7,0.6
			c0.8,0.4,1.4,1,1.9,1.9c0.5,0.8,0.7,1.7,0.7,2.8C101.2,16.1,101.2,16.4,101.1,16.9z M94.2,13.6c-0.5,0.4-0.7,0.9-0.8,1.6h5
			c-0.1-0.6-0.4-1.2-0.8-1.5c-0.5-0.4-1-0.6-1.7-0.6C95.2,13,94.7,13.2,94.2,13.6z"/>
		<path class="st2" d="M103.3,9c-0.3-0.3-0.5-0.7-0.5-1.2c0-0.5,0.2-0.9,0.5-1.2c0.3-0.3,0.8-0.5,1.3-0.5s1,0.2,1.3,0.5
			c0.3,0.3,0.5,0.7,0.5,1.1c0,0.5-0.2,0.9-0.5,1.2c-0.3,0.3-0.8,0.5-1.3,0.5S103.7,9.3,103.3,9z M103.2,10.9h3v10.2h-3V10.9z"/>
		<path class="st2" d="M113.2,11.2c0.6-0.3,1.3-0.4,2.1-0.4v2.7c-0.3,0-0.6,0-0.7,0c-0.8,0-1.5,0.2-2,0.7c-0.5,0.5-0.7,1.2-0.7,2.1
			v4.8h-3V10.9h2.8v1.3C112.1,11.8,112.6,11.4,113.2,11.2z"/>
		<path class="st2" d="M118.9,20.6c-0.9-0.5-1.5-1.1-2-1.9c-0.5-0.8-0.7-1.7-0.7-2.7c0-1,0.2-1.9,0.7-2.7c0.5-0.8,1.2-1.4,2-1.9
			c0.9-0.4,1.8-0.7,2.9-0.7s2,0.2,2.9,0.7c0.8,0.5,1.5,1.1,2,1.9c0.5,0.8,0.7,1.7,0.7,2.7c0,1-0.2,1.9-0.7,2.7
			c-0.5,0.8-1.1,1.4-2,1.9c-0.8,0.4-1.8,0.7-2.9,0.7S119.8,21.1,118.9,20.6z M123.7,18.1c0.5-0.5,0.7-1.2,0.7-2.1
			c0-0.9-0.2-1.5-0.7-2.1c-0.5-0.5-1.1-0.8-1.9-0.8s-1.4,0.3-1.9,0.8c-0.5,0.5-0.7,1.2-0.7,2.1c0,0.9,0.2,1.5,0.7,2.1
			c0.5,0.5,1.1,0.8,1.9,0.8S123.2,18.6,123.7,18.1z"/>
		<path class="st2" d="M130.3,21c-0.8-0.2-1.5-0.5-1.9-0.8l1-2.1c0.5,0.3,1,0.5,1.7,0.7s1.3,0.3,1.9,0.3c1.3,0,1.9-0.3,1.9-0.9
			c0-0.3-0.2-0.5-0.5-0.6c-0.3-0.1-0.9-0.2-1.6-0.3c-0.8-0.1-1.5-0.3-2.1-0.4s-1-0.5-1.4-0.9c-0.4-0.4-0.6-1-0.6-1.8
			c0-0.6,0.2-1.2,0.6-1.7c0.4-0.5,0.9-0.9,1.6-1.2s1.6-0.4,2.5-0.4c0.7,0,1.4,0.1,2.2,0.2s1.3,0.4,1.8,0.7l-1,2.1
			c-0.9-0.5-1.9-0.8-2.9-0.8c-0.6,0-1.1,0.1-1.4,0.3c-0.3,0.2-0.5,0.4-0.5,0.7c0,0.3,0.2,0.5,0.5,0.7c0.3,0.1,0.9,0.2,1.6,0.4
			c0.8,0.1,1.5,0.3,2.1,0.4c0.5,0.2,1,0.4,1.4,0.9c0.4,0.4,0.6,1,0.6,1.7c0,0.6-0.2,1.2-0.6,1.7s-0.9,0.9-1.7,1.2
			c-0.7,0.3-1.6,0.4-2.6,0.4C132,21.3,131.1,21.2,130.3,21z"/>
	</g>
</g>
</svg>
