<?xml version="1.0" encoding="utf-8"?>
<!-- Generator: Adobe Illustrator 24.0.1, SVG Export Plug-In . SVG Version: 6.00 Build 0)  -->
<svg version="1.1" id="Camada_1" xmlns="http://www.w3.org/2000/svg" xmlns:xlink="http://www.w3.org/1999/xlink" x="0px" y="0px"
	 viewBox="0 0 50 50" style="enable-background:new 0 0 50 50;" xml:space="preserve">
<style type="text/css">
	.st0{fill:#999999;}
</style>
<g>
	<g>
		<path class="st0" d="M43.67,13.01c-1.41,0.62-2.92,1.03-4.49,1.23c1.61-0.96,2.85-2.48,3.43-4.3c-1.51,0.9-3.17,1.53-4.94,1.88
			c-1.43-1.52-3.47-2.46-5.69-2.46c-4.31,0-7.78,3.5-7.78,7.79c0,0.62,0.05,1.21,0.18,1.78c-6.47-0.32-12.2-3.42-16.05-8.14
			c-0.67,1.17-1.07,2.5-1.07,3.94c0,2.7,1.39,5.09,3.46,6.47c-1.25-0.02-2.48-0.39-3.52-0.96c0,0.02,0,0.05,0,0.09
			c0,3.78,2.7,6.93,6.24,7.65c-0.63,0.17-1.32,0.26-2.04,0.26c-0.5,0-1-0.03-1.47-0.13c1.01,3.08,3.87,5.35,7.28,5.42
			c-2.65,2.07-6.01,3.32-9.65,3.32c-0.64,0-1.25-0.03-1.86-0.11c3.45,2.22,7.54,3.49,11.95,3.49c14.33,0,22.16-11.87,22.16-22.16
			c0-0.34-0.01-0.68-0.03-1.01C41.32,15.95,42.61,14.58,43.67,13.01z"/>
	</g>
</g>
</svg>
