<?xml version="1.0" encoding="utf-8"?>
<!-- Generator: Adobe Illustrator 24.0.1, SVG Export Plug-In . SVG Version: 6.00 Build 0)  -->
<svg version="1.1" id="Camada_1" xmlns="http://www.w3.org/2000/svg" xmlns:xlink="http://www.w3.org/1999/xlink" x="0px" y="0px"
	 viewBox="0 0 50 50" style="enable-background:new 0 0 50 50;" xml:space="preserve">
<style type="text/css">
	.st0{fill:#999999;}
</style>
<g>
	<g>
		<path class="st0" d="M41.7,14.46c-1.01-1.79-2.1-2.12-4.33-2.25C35.14,12.06,29.54,12,24.69,12c-4.86,0-10.46,0.06-12.69,0.21
			c-2.22,0.13-3.32,0.46-4.34,2.25c-1.04,1.79-1.57,4.88-1.57,10.31c0,0,0,0.01,0,0.01c0,0,0,0.01,0,0.01v0
			c0,5.41,0.53,8.52,1.57,10.3c1.02,1.79,2.11,2.12,4.34,2.27c2.23,0.13,7.83,0.21,12.69,0.21c4.85,0,10.45-0.08,12.68-0.2
			c2.23-0.15,3.32-0.48,4.33-2.27c1.05-1.77,1.58-4.88,1.58-10.3c0,0,0-0.01,0-0.01c0,0,0,0,0-0.01
			C43.28,19.34,42.75,16.26,41.7,14.46z M20.03,31.76V17.81l11.62,6.97L20.03,31.76z"/>
	</g>
</g>
</svg>
